<svg width="47" height="48" viewBox="0 0 47 48" fill="none" xmlns="http://www.w3.org/2000/svg">
<path d="M23.016 0C10.3054 0 0 10.6502 0 23.7859C0 36.9217 10.3054 47.5719 23.016 47.5719C35.7265 47.5719 46.032 36.9217 46.032 23.7859C46.032 10.6502 35.7265 0 23.016 0ZM37.8862 36.2835C37.3856 35.1219 36.3729 34.3192 34.2976 33.8236C29.8997 32.7751 25.8047 31.8553 27.7899 27.9862C33.822 16.2081 29.3876 9.91081 23.016 9.91081C16.5178 9.91081 12.1908 16.45 18.2421 27.9862C20.2867 31.8791 16.0402 32.7969 11.7343 33.8236C9.6552 34.3192 8.65017 35.1279 8.15341 36.2934C5.45862 32.8781 3.836 28.5253 3.836 23.7859C3.836 12.8563 12.4401 3.96432 23.016 3.96432C33.5918 3.96432 42.196 12.8563 42.196 23.7859C42.196 28.5213 40.5752 32.8702 37.8862 36.2835Z" fill="#5A40AB"/>
</svg>
