<svg width="24" height="24" viewBox="0 0 24 24" fill="none" xmlns="http://www.w3.org/2000/svg">
<g clip-path="url(#clip0)">
<path fill-rule="evenodd" clip-rule="evenodd" d="M7 11V13.4H10.97C10.81 14.429 9.77 16.42 7 16.42C4.61 16.42 2.66 14.441 2.66 12C2.66 9.56 4.61 7.58 7 7.58C8.36 7.58 9.27 8.16 9.79 8.66L11.69 6.83C10.47 5.69 8.89 5 7 5C3.13 5 0 8.13 0 12C0 15.87 3.13 19 7 19C11.04 19 13.721 16.16 13.721 12.16C13.721 11.7 13.67 11.35 13.61 11H7V11ZM7 11L24 13H21V16H19V13H16V11H19V8H21V11H24V13L7 11Z" fill="#DD4B39"/>
</g>
<defs>
<clipPath id="clip0">
<rect width="24" height="24" fill="white"/>
</clipPath>
</defs>
</svg>
