<svg width="19" height="16" viewBox="0 0 19 16" fill="none" xmlns="http://www.w3.org/2000/svg">
<path d="M18.5 2.41779C17.8377 2.71179 17.126 2.90979 16.379 2.99904C17.1418 2.54229 17.7275 1.81854 18.0028 0.956035C17.2895 1.37904 16.499 1.68654 15.6575 1.85229C14.9847 1.13454 14.024 0.686035 12.962 0.686035C10.5777 0.686035 8.82575 2.91054 9.36425 5.21979C6.296 5.06604 3.575 3.59604 1.75325 1.36179C0.78575 3.02154 1.2515 5.19278 2.8955 6.29228C2.291 6.27278 1.721 6.10704 1.22375 5.83029C1.18325 7.54104 2.4095 9.14153 4.1855 9.49778C3.66575 9.63878 3.0965 9.67179 2.5175 9.56079C2.987 11.0278 4.3505 12.095 5.9675 12.125C4.415 13.3423 2.459 13.886 0.5 13.655C2.13425 14.7028 4.076 15.314 6.161 15.314C13.0175 15.314 16.8912 9.52328 16.6572 4.32954C17.3787 3.80828 18.005 3.15804 18.5 2.41779Z" fill="#5B34D6"/>
</svg>
