<?xml version="1.0" standalone="no"?>
<!DOCTYPE svg PUBLIC "-//W3C//DTD SVG 20010904//EN"
 "http://www.w3.org/TR/2001/REC-SVG-20010904/DTD/svg10.dtd">
<svg version="1.0" xmlns="http://www.w3.org/2000/svg"
 width="500.000000pt" height="500.000000pt" viewBox="0 0 500.000000 500.000000"
 preserveAspectRatio="xMidYMid meet">

<g transform="translate(0.000000,500.000000) scale(0.100000,-0.100000)"
fill="#000000" stroke="none">
<path d="M0 2500 l0 -2500 2500 0 2500 0 0 2500 0 2500 -2500 0 -2500 0 0
-2500z m2657 985 c21 -23 31 -92 36 -256 3 -78 -44 -109 -165 -109 -46 0 -62
5 -84 24 -27 23 -28 28 -38 165 l-9 142 25 26 c48 47 195 52 235 8z m441 -123
c61 -40 82 -66 82 -103 0 -33 -128 -230 -164 -255 -40 -25 -102 -2 -183 69
-53 47 -47 81 40 207 40 57 83 110 97 117 32 16 64 8 128 -35z m-918 -132
c104 -164 107 -173 86 -206 -16 -23 -23 -26 -60 -21 -22 3 -50 8 -60 13 -18 7
-18 5 3 -24 31 -44 26 -92 -12 -110 -25 -12 -39 -8 -197 59 -148 62 -168 74
-160 89 5 9 23 23 40 30 29 12 38 10 123 -29 51 -24 98 -45 105 -48 7 -3 -14
36 -47 87 -63 95 -72 129 -46 164 19 25 29 19 67 -37 25 -36 47 -55 86 -73
l53 -24 -22 38 c-13 20 -40 64 -61 96 -44 68 -46 83 -17 120 25 32 12 45 119
-124z m1222 -245 c50 -50 62 -151 25 -206 -19 -28 -38 -39 -117 -67 -111 -39
-145 -37 -193 11 -32 33 -86 171 -72 185 12 12 279 100 306 101 15 1 37 -9 51
-24z m-942 -114 c0 -22 4 -51 10 -65 8 -22 16 -26 47 -26 21 0 59 -11 85 -25
53 -28 91 -31 128 -10 37 21 40 19 40 -32 0 -59 -29 -124 -64 -149 -72 -51
-68 -41 -45 -114 33 -104 36 -215 9 -350 -27 -135 -29 -239 -6 -294 12 -28 13
-43 6 -50 -11 -11 -105 -12 -470 -6 -96 2 -186 1 -200 -1 -22 -4 -27 2 -47 56
-24 65 -30 165 -13 211 9 23 6 32 -23 68 -49 60 -57 79 -57 138 0 62 33 140
75 178 l27 25 -7 -25 c-14 -46 -22 -145 -14 -174 9 -30 55 -86 72 -86 12 0
161 108 219 159 77 68 91 110 99 291 8 177 21 225 76 283 21 20 41 37 45 37 4
0 8 -18 8 -39z m850 -352 c66 -23 123 -50 134 -62 24 -29 18 -94 -17 -170 -39
-87 -54 -90 -194 -42 -191 66 -202 79 -163 198 25 80 56 117 97 117 16 0 80
-18 143 -41z m-299 -302 c9 -7 46 -60 83 -117 90 -141 89 -155 -14 -227 -41
-29 -78 -52 -81 -53 -4 0 -12 13 -19 29 -15 38 -1 65 44 86 19 9 37 23 40 31
6 16 -91 174 -108 174 -6 0 -28 -11 -49 -25 -36 -25 -37 -26 -21 -50 11 -16
26 -25 43 -25 26 0 51 -16 51 -31 0 -13 -67 -49 -92 -49 -18 0 -33 14 -61 56
-57 87 -50 114 46 175 64 40 109 49 138 26z"/>
<path d="M2501 3421 c-15 -9 -17 -108 -4 -179 5 -33 6 -33 57 -30 l51 3 -3 85
c-4 125 -5 130 -50 130 -20 0 -43 -4 -51 -9z"/>
<path d="M2942 3233 c-28 -43 -52 -82 -52 -88 0 -12 65 -55 82 -55 7 1 38 37
67 82 l55 81 -34 29 c-19 15 -41 28 -50 28 -8 0 -39 -35 -68 -77z"/>
<path d="M3235 2888 c-49 -17 -91 -32 -93 -33 -2 -2 4 -19 12 -39 20 -48 49
-53 131 -26 75 25 94 48 78 97 -5 15 -16 29 -24 30 -8 1 -54 -12 -104 -29z"/>
<path d="M3155 2424 c-9 -25 -13 -49 -9 -53 8 -8 179 -71 190 -71 8 0 34 68
34 88 0 15 -19 26 -88 51 -48 17 -92 31 -98 31 -6 0 -19 -21 -29 -46z"/>
</g>
</svg>
