<svg width="88" height="14" viewBox="0 0 88 14" fill="none" xmlns="http://www.w3.org/2000/svg">
<path d="M17.28 0.922C17.364 0.681999 17.496 0.501999 17.676 0.381999C17.868 0.261999 18.078 0.202 18.306 0.202C18.594 0.202 18.84 0.291999 19.044 0.471999C19.26 0.651999 19.368 0.891999 19.368 1.192C19.368 1.3 19.338 1.456 19.278 1.66L15.408 12.37C15.312 12.61 15.15 12.796 14.922 12.928C14.706 13.06 14.466 13.126 14.202 13.126C13.938 13.126 13.692 13.06 13.464 12.928C13.236 12.796 13.08 12.61 12.996 12.37L10.008 3.892L6.966 12.37C6.87 12.61 6.708 12.796 6.48 12.928C6.264 13.06 6.024 13.126 5.76 13.126C5.496 13.126 5.25 13.06 5.022 12.928C4.806 12.796 4.656 12.61 4.572 12.37L0.702 1.66C0.642 1.48 0.612 1.324 0.612 1.192C0.612 0.891999 0.72 0.651999 0.936 0.471999C1.164 0.291999 1.428 0.202 1.728 0.202C1.968 0.202 2.184 0.261999 2.376 0.381999C2.568 0.501999 2.706 0.681999 2.79 0.922L5.85 9.724L9 0.975999C9.084 0.735999 9.222 0.549999 9.414 0.417999C9.606 0.273999 9.816 0.202 10.044 0.202C10.272 0.202 10.482 0.273999 10.674 0.417999C10.878 0.549999 11.022 0.741999 11.106 0.993999L14.166 9.832L17.28 0.922ZM26.6899 13.162C25.4539 13.162 24.3799 12.898 23.4679 12.37C22.5679 11.842 21.8719 11.086 21.3799 10.102C20.8879 9.118 20.6419 7.966 20.6419 6.646C20.6419 5.326 20.8819 4.18 21.3619 3.208C21.8539 2.224 22.5559 1.468 23.4679 0.94C24.3799 0.411999 25.4539 0.147999 26.6899 0.147999C27.9259 0.147999 28.9939 0.411999 29.8939 0.94C30.8059 1.468 31.5019 2.224 31.9819 3.208C32.4739 4.18 32.7199 5.326 32.7199 6.646C32.7199 7.966 32.4739 9.118 31.9819 10.102C31.4899 11.086 30.7879 11.842 29.8759 12.37C28.9759 12.898 27.9139 13.162 26.6899 13.162ZM26.6899 11.308C27.8539 11.308 28.7599 10.906 29.4079 10.102C30.0679 9.298 30.3979 8.146 30.3979 6.646C30.3979 5.146 30.0679 4 29.4079 3.208C28.7599 2.404 27.8539 2.002 26.6899 2.002C25.5139 2.002 24.5959 2.404 23.9359 3.208C23.2879 4 22.9639 5.146 22.9639 6.646C22.9639 8.146 23.2879 9.298 23.9359 10.102C24.5959 10.906 25.5139 11.308 26.6899 11.308ZM40.7173 13.162C39.4813 13.162 38.4073 12.898 37.4953 12.37C36.5953 11.842 35.8993 11.086 35.4073 10.102C34.9153 9.118 34.6693 7.966 34.6693 6.646C34.6693 5.326 34.9093 4.18 35.3893 3.208C35.8813 2.224 36.5833 1.468 37.4953 0.94C38.4073 0.411999 39.4813 0.147999 40.7173 0.147999C41.9533 0.147999 43.0213 0.411999 43.9213 0.94C44.8333 1.468 45.5293 2.224 46.0093 3.208C46.5013 4.18 46.7473 5.326 46.7473 6.646C46.7473 7.966 46.5013 9.118 46.0093 10.102C45.5173 11.086 44.8153 11.842 43.9033 12.37C43.0033 12.898 41.9413 13.162 40.7173 13.162ZM40.7173 11.308C41.8813 11.308 42.7873 10.906 43.4353 10.102C44.0953 9.298 44.4253 8.146 44.4253 6.646C44.4253 5.146 44.0953 4 43.4353 3.208C42.7873 2.404 41.8813 2.002 40.7173 2.002C39.5413 2.002 38.6233 2.404 37.9633 3.208C37.3153 4 36.9913 5.146 36.9913 6.646C36.9913 8.146 37.3153 9.298 37.9633 10.102C38.6233 10.906 39.5413 11.308 40.7173 11.308ZM50.2086 13C49.8606 13 49.5846 12.904 49.3806 12.712C49.1886 12.52 49.0926 12.25 49.0926 11.902V1.408C49.0926 1.06 49.1886 0.789999 49.3806 0.598C49.5846 0.405999 49.8606 0.309999 50.2086 0.309999H53.7726C55.8486 0.309999 57.4566 0.867999 58.5966 1.984C59.7486 3.088 60.3246 4.642 60.3246 6.646C60.3246 8.662 59.7486 10.228 58.5966 11.344C57.4566 12.448 55.8486 13 53.7726 13H50.2086ZM53.6286 11.11C56.5446 11.11 58.0026 9.622 58.0026 6.646C58.0026 3.682 56.5446 2.2 53.6286 2.2H51.4146V11.11H53.6286ZM68.3149 13.162C67.0789 13.162 66.0049 12.898 65.0929 12.37C64.1929 11.842 63.4969 11.086 63.0049 10.102C62.5129 9.118 62.2669 7.966 62.2669 6.646C62.2669 5.326 62.5069 4.18 62.9869 3.208C63.4789 2.224 64.1809 1.468 65.0929 0.94C66.0049 0.411999 67.0789 0.147999 68.3149 0.147999C69.5509 0.147999 70.6189 0.411999 71.5189 0.94C72.4309 1.468 73.1269 2.224 73.6069 3.208C74.0989 4.18 74.3449 5.326 74.3449 6.646C74.3449 7.966 74.0989 9.118 73.6069 10.102C73.1149 11.086 72.4129 11.842 71.5009 12.37C70.6009 12.898 69.5389 13.162 68.3149 13.162ZM68.3149 11.308C69.4789 11.308 70.3849 10.906 71.0329 10.102C71.6929 9.298 72.0229 8.146 72.0229 6.646C72.0229 5.146 71.6929 4 71.0329 3.208C70.3849 2.404 69.4789 2.002 68.3149 2.002C67.1389 2.002 66.2209 2.404 65.5609 3.208C64.9129 4 64.5889 5.146 64.5889 6.646C64.5889 8.146 64.9129 9.298 65.5609 10.102C66.2209 10.906 67.1389 11.308 68.3149 11.308ZM86.3563 6.142C86.6323 6.142 86.8543 6.226 87.0223 6.394C87.1903 6.55 87.2743 6.76 87.2743 7.024V10.894C87.2743 11.446 87.2023 11.836 87.0583 12.064C86.9143 12.292 86.6203 12.478 86.1763 12.622C85.6963 12.79 85.1383 12.922 84.5023 13.018C83.8663 13.114 83.2543 13.162 82.6663 13.162C81.3583 13.162 80.2243 12.904 79.2643 12.388C78.3043 11.872 77.5663 11.128 77.0503 10.156C76.5463 9.172 76.2943 8.002 76.2943 6.646C76.2943 5.314 76.5463 4.162 77.0503 3.19C77.5663 2.206 78.2923 1.456 79.2283 0.94C80.1643 0.411999 81.2683 0.147999 82.5403 0.147999C84.2323 0.147999 85.6183 0.603999 86.6983 1.516C86.8423 1.648 86.9443 1.78 87.0043 1.912C87.0763 2.044 87.1123 2.2 87.1123 2.38C87.1123 2.644 87.0403 2.866 86.8963 3.046C86.7523 3.226 86.5783 3.316 86.3743 3.316C86.2423 3.316 86.1223 3.298 86.0143 3.262C85.9063 3.214 85.7803 3.142 85.6363 3.046C85.1083 2.674 84.6163 2.416 84.1603 2.272C83.7043 2.116 83.1883 2.038 82.6123 2.038C81.3043 2.038 80.3143 2.428 79.6423 3.208C78.9823 3.976 78.6523 5.122 78.6523 6.646C78.6523 9.766 80.0203 11.326 82.7563 11.326C83.5723 11.326 84.3883 11.212 85.2043 10.984V7.798H83.1703C82.8823 7.798 82.6543 7.726 82.4863 7.582C82.3303 7.438 82.2523 7.234 82.2523 6.97C82.2523 6.706 82.3303 6.502 82.4863 6.358C82.6543 6.214 82.8823 6.142 83.1703 6.142H86.3563Z" fill="white"/>
</svg>
